<?xml version="1.0" standalone="no"?>
<!DOCTYPE svg PUBLIC "-//W3C//DTD SVG 20010904//EN"
 "http://www.w3.org/TR/2001/REC-SVG-20010904/DTD/svg10.dtd">
<svg version="1.0" xmlns="http://www.w3.org/2000/svg"
 width="512.000000pt" height="512.000000pt" viewBox="0 0 512.000000 512.000000"
 preserveAspectRatio="xMidYMid meet">
<metadata>
Created by potrace 1.14, written by Peter Selinger 2001-2017
</metadata>
<g transform="translate(0.000000,512.000000) scale(0.100000,-0.100000)"
fill="#000000" stroke="none">
<path d="M3328 5115 c-2 -2 -30 -6 -63 -9 -231 -25 -491 -122 -705 -264 -388
-258 -655 -674 -716 -1117 -4 -22 -9 -59 -14 -82 -12 -69 -3 -340 15 -438 20
-109 17 -96 39 -177 l19 -66 -943 -943 c-518 -518 -946 -952 -950 -963 -5 -12
-9 -226 -9 -476 -1 -454 -1 -455 21 -499 43 -83 29 -81 551 -81 387 0 464 2
491 15 35 17 266 246 286 284 12 24 10 98 -8 247 l-8 61 46 2 c25 0 54 3 65 5
11 2 58 7 105 11 116 9 154 20 189 56 42 42 46 62 67 299 6 82 13 112 22 107
12 -8 152 -21 222 -21 52 -1 71 4 96 21 55 40 64 73 64 247 l0 156 154 0 c85
0 167 5 181 10 15 6 102 85 193 177 92 92 182 180 199 196 l33 29 48 -16 c220
-73 590 -83 834 -21 317 80 571 224 792 450 216 220 352 465 432 775 38 150
55 445 33 580 -5 30 -11 69 -13 85 -16 115 -82 316 -144 440 -206 416 -582
731 -1025 859 -140 41 -262 58 -434 61 -89 2 -163 2 -165 0z m710 -795 c182
-64 305 -237 303 -427 -1 -174 -99 -325 -260 -401 -63 -31 -88 -37 -161 -40
-142 -7 -245 34 -346 136 -62 62 -95 121 -114 202 -37 156 4 302 119 419 119
123 301 166 459 111z"/>
</g>
</svg>
